<svg width="132" height="36" viewBox="0 0 132 36" fill="none" xmlns="http://www.w3.org/2000/svg">
<path d="M1.23675 17.504C1.23675 15.84 1.58075 14.36 2.26875 13.064C2.97275 11.752 3.96475 10.736 5.24475 10.016C6.52475 9.28 7.99675 8.912 9.66075 8.912C11.7728 8.912 13.5488 9.48 14.9888 10.616C16.4288 11.736 17.3568 13.264 17.7728 15.2H12.7088C12.4048 14.56 11.9808 14.072 11.4368 13.736C10.9088 13.4 10.2928 13.232 9.58875 13.232C8.50075 13.232 7.62875 13.624 6.97275 14.408C6.33275 15.176 6.01275 16.208 6.01275 17.504C6.01275 18.816 6.33275 19.864 6.97275 20.648C7.62875 21.416 8.50075 21.8 9.58875 21.8C10.2928 21.8 10.9088 21.632 11.4368 21.296C11.9808 20.96 12.4048 20.472 12.7088 19.832H17.7728C17.3568 21.768 16.4288 23.304 14.9888 24.44C13.5488 25.56 11.7728 26.12 9.66075 26.12C7.99675 26.12 6.52475 25.76 5.24475 25.04C3.96475 24.304 2.97275 23.288 2.26875 21.992C1.58075 20.68 1.23675 19.184 1.23675 17.504ZM24.7043 8.24V26H20.0003V8.24H24.7043ZM29.7591 11.288C28.9271 11.288 28.2551 11.064 27.7431 10.616C27.2471 10.152 26.9991 9.576 26.9991 8.888C26.9991 8.184 27.2471 7.6 27.7431 7.136C28.2551 6.672 28.9271 6.44 29.7591 6.44C30.5751 6.44 31.2311 6.672 31.7271 7.136C32.2391 7.6 32.4951 8.184 32.4951 8.888C32.4951 9.576 32.2391 10.152 31.7271 10.616C31.2311 11.064 30.5751 11.288 29.7591 11.288ZM32.0871 12.536V26H27.3831V12.536H32.0871ZM54.5179 9.08V26H49.8139V16.664L46.6219 26H42.6859L39.4699 16.592V26H34.7659V9.08H40.4539L44.7019 20.072L48.8539 9.08H54.5179ZM56.4276 19.256C56.4276 17.864 56.6756 16.648 57.1716 15.608C57.6836 14.568 58.3716 13.768 59.2356 13.208C60.1156 12.648 61.0916 12.368 62.1636 12.368C63.0916 12.368 63.8916 12.552 64.5636 12.92C65.2356 13.288 65.7556 13.784 66.1236 14.408V12.536H70.8276V26H66.1236V24.128C65.7556 24.752 65.2276 25.248 64.5396 25.616C63.8676 25.984 63.0756 26.168 62.1636 26.168C61.0916 26.168 60.1156 25.888 59.2356 25.328C58.3716 24.768 57.6836 23.968 57.1716 22.928C56.6756 21.872 56.4276 20.648 56.4276 19.256ZM66.1236 19.256C66.1236 18.392 65.8836 17.712 65.4036 17.216C64.9396 16.72 64.3636 16.472 63.6756 16.472C62.9716 16.472 62.3876 16.72 61.9236 17.216C61.4596 17.696 61.2276 18.376 61.2276 19.256C61.2276 20.12 61.4596 20.808 61.9236 21.32C62.3876 21.816 62.9716 22.064 63.6756 22.064C64.3636 22.064 64.9396 21.816 65.4036 21.32C65.8836 20.824 66.1236 20.136 66.1236 19.256ZM81.4521 21.992V26H79.4121C75.9721 26 74.2521 24.296 74.2521 20.888V16.448H72.5961V12.536H74.2521V9.272H78.9801V12.536H81.4281V16.448H78.9801V20.96C78.9801 21.328 79.0601 21.592 79.2201 21.752C79.3961 21.912 79.6841 21.992 80.0841 21.992H81.4521ZM91.5536 21.992V26H89.5136C86.0736 26 84.3536 24.296 84.3536 20.888V16.448H82.6976V12.536H84.3536V9.272H89.0816V12.536H91.5296V16.448H89.0816V20.96C89.0816 21.328 89.1616 21.592 89.3216 21.752C89.4976 21.912 89.7856 21.992 90.1856 21.992H91.5536ZM106.575 19.112C106.575 19.48 106.551 19.848 106.503 20.216H97.5992C97.6472 20.952 97.8472 21.504 98.1992 21.872C98.5672 22.224 99.0312 22.4 99.5912 22.4C100.375 22.4 100.935 22.048 101.271 21.344H106.287C106.079 22.272 105.671 23.104 105.063 23.84C104.471 24.56 103.719 25.128 102.807 25.544C101.895 25.96 100.887 26.168 99.7832 26.168C98.4552 26.168 97.2712 25.888 96.2312 25.328C95.2072 24.768 94.3992 23.968 93.8072 22.928C93.2312 21.888 92.9432 20.664 92.9432 19.256C92.9432 17.848 93.2312 16.632 93.8072 15.608C94.3832 14.568 95.1832 13.768 96.2072 13.208C97.2472 12.648 98.4392 12.368 99.7832 12.368C101.111 12.368 102.287 12.64 103.311 13.184C104.335 13.728 105.135 14.512 105.711 15.536C106.287 16.544 106.575 17.736 106.575 19.112ZM101.775 17.936C101.775 17.36 101.583 16.912 101.199 16.592C100.815 16.256 100.335 16.088 99.7592 16.088C99.1832 16.088 98.7112 16.248 98.3432 16.568C97.9752 16.872 97.7352 17.328 97.6232 17.936H101.775ZM113.204 14.912C113.732 14.144 114.372 13.536 115.124 13.088C115.876 12.64 116.684 12.416 117.548 12.416V17.432H116.228C115.204 17.432 114.444 17.632 113.948 18.032C113.452 18.432 113.204 19.128 113.204 20.12V26H108.5V12.536H113.204V14.912ZM124.971 26.168C123.755 26.168 122.667 25.968 121.707 25.568C120.763 25.152 120.011 24.592 119.451 23.888C118.907 23.168 118.603 22.36 118.539 21.464H123.099C123.163 21.896 123.363 22.232 123.699 22.472C124.035 22.712 124.451 22.832 124.947 22.832C125.331 22.832 125.635 22.752 125.859 22.592C126.083 22.432 126.195 22.224 126.195 21.968C126.195 21.632 126.011 21.384 125.643 21.224C125.275 21.064 124.667 20.888 123.819 20.696C122.859 20.504 122.059 20.288 121.419 20.048C120.779 19.808 120.219 19.416 119.739 18.872C119.275 18.328 119.043 17.592 119.043 16.664C119.043 15.864 119.259 15.144 119.691 14.504C120.123 13.848 120.755 13.328 121.587 12.944C122.435 12.56 123.451 12.368 124.635 12.368C126.395 12.368 127.779 12.8 128.787 13.664C129.795 14.528 130.379 15.664 130.539 17.072H126.291C126.211 16.64 126.019 16.312 125.715 16.088C125.427 15.848 125.035 15.728 124.539 15.728C124.155 15.728 123.859 15.8 123.651 15.944C123.459 16.088 123.363 16.288 123.363 16.544C123.363 16.864 123.547 17.112 123.915 17.288C124.283 17.448 124.875 17.616 125.691 17.792C126.667 18 127.475 18.232 128.115 18.488C128.771 18.744 129.339 19.16 129.819 19.736C130.315 20.296 130.563 21.064 130.563 22.04C130.563 22.824 130.331 23.528 129.867 24.152C129.419 24.776 128.771 25.272 127.923 25.64C127.091 25.992 126.107 26.168 124.971 26.168Z" fill="url(#paint0_linear_36_329)"/>
<defs>
<linearGradient id="paint0_linear_36_329" x1="66" y1="0" x2="66" y2="36" gradientUnits="userSpaceOnUse">
<stop stop-color="#88E7AE"/>
<stop offset="1" stop-color="#69CB90"/>
</linearGradient>
</defs>
</svg>
